<?xml version="1.0" standalone="no"?>
<!DOCTYPE svg PUBLIC "-//W3C//DTD SVG 1.1//EN" "http://www.w3.org/Graphics/SVG/1.1/DTD/svg11.dtd" >
<svg xmlns="http://www.w3.org/2000/svg">
<metadata>Generated by IcoMoon</metadata>
<defs>
<font id="icomoon" horiz-adv-x="1024">
<font-face units-per-em="1024" ascent="960" descent="-64" />
<missing-glyph horiz-adv-x="1024" />
<glyph unicode="&#x20;" horiz-adv-x="512" d="" />
<glyph unicode="&#xe900;" glyph-name="aboutus" d="M512-63.923c-282.778 0-512.026 229.222-512.026 511.974 0 282.778 229.248 512.026 512.026 512.026 282.752 0 511.974-229.248 511.974-512.026 0-282.752-229.222-511.974-511.974-511.974zM512 903.168c-251.366 0-455.117-203.75-455.117-455.117 0-251.341 203.75-455.117 455.117-455.117 251.341 0 455.091 203.776 455.091 455.117 0 251.366-203.75 455.117-455.091 455.117zM455.091 277.376h113.792v-113.766h-113.792v113.766zM455.091 789.376h113.792v-455.091h-113.792v455.091z" />
<glyph unicode="&#xe901;" glyph-name="user" d="M535.814 283.684c147.647 0 295.293 147.647 295.293 333.395 0 257.191-109.544 333.395-295.293 333.395-147.647 0-295.293-76.205-295.293-333.395 0-185.749 147.646-333.395 295.293-333.395zM945.414 136.037c0 0-38.102 76.205-185.749 109.544 0 0-76.205-109.544-223.851-109.544v0h-76.205c-147.647 0-223.851 109.544-223.851 109.544-147.647-38.102-185.749-109.544-185.749-109.544-76.205-147.647 38.102-185.749 38.102-185.749h819.201c38.102 0.002 147.648 76.205 38.102 185.749z" />
<glyph unicode="&#xe902;" glyph-name="gouwuche" d="M891.589 387.704c-4.921-31.548-35.071-57.36-67-57.36h-394.164c-31.929 0-61.653 25.875-66.053 57.5l-44.164 317.436c-4.4 31.624 17.722 52.933 49.159 47.352l506.379-89.902c31.438-5.582 53.134-35.96 48.213-67.508l-32.37-207.517zM810.359 295.709h-481.060l-63.637 474.873c-1.929 14.411-13.329 25.102-26.145 25.238-1.452 0.21-2.942 0.317-4.456 0.317h-115.14c-15.831 0-28.791-11.666-28.791-25.933 0-14.259 12.959-25.929 28.791-25.929h96.99l63.654-474.987c2.020-15.067 14.351-26.035 27.841-25.218 0.678-0.028 1.357-0.053 2.035-0.053h499.918c15.84 0 28.797 11.617 28.797 25.83 0.001 14.223-12.957 25.86-28.796 25.86zM472.598 154.041c0-31.729-25.773-57.451-57.573-57.451-31.802 0-57.573 25.721-57.573 57.451 0 31.72 25.771 57.452 57.573 57.452s57.573-25.732 57.573-57.452zM784.845 154.041c0-31.729-25.774-57.451-57.556-57.451-31.811 0-57.588 25.721-57.588 57.451 0 31.72 25.777 57.452 57.588 57.452 31.782 0.001 57.556-25.732 57.556-57.452z" />
<glyph unicode="&#xe903;" glyph-name="home" d="M901.188 495.078l-305.898 318.149c-19.014 19.752-44.424 30.624-71.653 30.624s-52.639-10.873-71.654-30.624l-305.896-318.149c-31.572-32.837-27.5-61.223-22.286-73.078 3.726-8.414 16.284-31.533 52.442-31.533h44.842v-244.749c0-55.567 39.933-107.886 96.693-107.886h130.221v259.013c0 27.773-4.207 43.243 24.18 43.243h102.917c28.385 0 24.18-15.47 24.18-43.243v-259.013h130.22c56.747 0 96.694 52.32 96.694 107.886l-0.001 244.749h44.841c36.159 0 48.729 23.121 52.442 31.533 5.216 11.856 9.274 40.242-22.286 73.079z" />
<glyph unicode="&#xe904;" glyph-name="chache" d="M798.822 843.571c67.533-16.077 34.56-207.77 34.381-301.722-0.077-34.842 1.971 24.858-2.304-6.4 62.438-3.302 157.133 13.184 183.347-27.238 12.954-19.968 9.19-59.392 9.19-91.878 0-48.768 0-97.536 0-146.304 0-21.453 2.662-48.307-3.456-64.666-5.171-13.824-17.101-25.088-29.798-31.77-3.814 9.83-7.629 19.686-11.443 29.491-12.186 24.525-33.92 45.491-57.318 58.982-90.624 52.301-183.373-18.483-200.525-94.131-26.752 0-53.504 0-80.23 0-16.973 76.851-100.147 138.445-193.664 97.536-40.653-17.766-60.902-52.224-75.648-96.41-15.514 5.709-28.646 13.184-36.659 26.086-14.592 23.501-14.566 144.998-6.886 178.099 65.664 316.646 91.059 431.821 146.688 470.323s243.763 31.283 324.326 0zM502.016 786.842c-35.328-26.342-55.603-59.827-93.978-243.456-8.704-36.966-33.894-113.331-21.786-151.987 165.939-1.766 332.109 4.224 390.784 110.003 35.354 63.744 12.723 86.17 20.634 176.563 3.968 45.261-0.23 89.37-24.064 107.75-9.165 4.531-18.355 9.088-27.52 13.619-225.459 0-209.613 13.235-244.070-12.493zM220.083 825.805l77.926-3.405v-654.464l-80.205 1.126c0 0 0 310.81 0 466.202 0 46.874 0 93.773 0 140.646 0 15.283 2.278 49.894 2.278 49.894zM150.195 209.894l6.246 154.598 46.464 1.946v-147.456l-2.304-52.173h-147.814l-52.71 2.253c0 0 0.179 13.875 2.278 18.15 49.28 7.578 147.84 22.682 147.84 22.682zM493.978 248.474c155.802 2.918 162.483-199.142 22.912-222.336-82.355-13.67-147.302 78.72-115.738 154.266 19.763 47.283 45.901 49.050 92.826 68.070zM845.798 248.474c155.802 2.918 162.483-199.142 22.912-222.336-82.381-13.67-147.328 78.72-115.738 154.266 19.763 47.283 45.875 49.050 92.826 68.070z" />
<glyph unicode="&#xe905;" glyph-name="like" d="M755.188 896c-107.63 0-200.258-87.554-243.164-179-42.938 91.444-135.578 179-243.216 179-148.382 0-268.808-120.44-268.808-268.832 0-301.846 304.5-380.994 512.022-679.418 196.154 296.576 511.978 387.206 511.978 679.418 0 148.392-120.43 268.832-268.812 268.832z" />
<glyph unicode="&#xe906;" glyph-name="shouhou2" horiz-adv-x="1321" d="M650.504 686.394l132.492-126.018 132.459 126.018 69.203-65.833-84.034-79.938h78.286v-92.622h-146.234v-47.17h146.234v-92.622h-146.234v-139.793h-98.040v139.793h-147.985v92.622h147.985v47.17h-147.985v92.622h78.683l-84.034 79.938 69.203 65.833zM782.997 549.079l-8.919-8.456h17.804l-8.886 8.456zM770.742-64c-187.623 0-353.115 87.469-452.509 220.755l79.608 74.025c77.89-115.415 215.569-192.38 372.901-192.38 243.25 0 440.452 183.395 440.452 409.6 0 226.238-197.203 409.6-440.452 409.6-243.217 0-440.419-183.362-440.419-409.6 0-8.456 0.595-16.78 1.156-25.105l151.387 139.264 67.683-62.959-275.291-256-275.258 256 69.401 64.545 152.213-142.336c-0.495 8.853-1.42 17.606-1.42 26.591 0 282.789 246.52 512 550.549 512 304.062 0 550.549-229.211 550.549-512 0-282.756-246.487-512-550.549-512z" />
<glyph unicode="&#xe907;" glyph-name="dingdan2" horiz-adv-x="922" d="M819.2 857.6h-214.272c-20.992 59.392-77.312 102.4-144.128 102.4s-123.136-43.008-144.128-102.4h-214.272c-56.576 0-102.4-45.824-102.4-102.4v-716.8c0-56.576 45.824-102.4 102.4-102.4h716.8c56.576 0 102.4 45.824 102.4 102.4v716.8c0 56.576-45.824 102.4-102.4 102.4v0zM460.8 857.6c28.16 0 51.2-22.784 51.2-51.2s-23.040-51.2-51.2-51.2c-28.16 0-51.2 22.784-51.2 51.2s23.040 51.2 51.2 51.2v0zM563.2 140.8h-358.4v102.4h358.4v-102.4zM716.8 345.6h-512v102.4h512v-102.4zM716.8 550.4h-512v102.4h512v-102.4z" />
<glyph unicode="&#xe908;" glyph-name="order" d="M810.872 776.76h-121.417v-132.623c0-24.751-11.15-44.832-24.925-44.832h-308.826c-13.746 0-24.896 20.086-24.896 44.832v132.623h-117.681c-33.010 0-59.774-26.733-59.774-59.774v-657.519c0-33.036 26.763-59.774 59.774-59.774h597.745c33.040 0 59.774 26.738 59.774 59.774v657.519c0 33.037-26.738 59.775-59.774 59.775v0zM422.341 659.079h179.323c16.465 0 29.885 13.425 29.885 29.89v87.791c0 16.52-13.42 29.89-29.885 29.89h-1.813c1.168 4.844 1.813 9.803 1.813 14.942 0 41.267-40.164 74.718-89.664 74.718s-89.664-33.45-89.664-74.718c0-5.139 0.646-10.098 1.812-14.942h-1.812c-16.52 0-29.886-13.369-29.886-29.89v-87.791c0.001-16.465 13.366-29.89 29.891-29.89v0zM452.226 836.534h119.55v-59.775h-119.55v59.775z" />
<glyph unicode="&#xe909;" glyph-name="Down" d="M512.051 192.307l-512.102 511.411h1024.23l-512.128-511.411z" />
<glyph unicode="&#xe90a;" glyph-name="fanye" horiz-adv-x="589" d="M588.698 443.187l-84.096-86.144-4.71 4.838-415.77-425.805-84.096 86.118 415.77 425.83-415.77 425.805 84.096 86.144 415.77-425.83 4.71 4.838 84.096-86.144-4.736-4.813 4.736-4.838z" />
<glyph unicode="&#xe90b;" glyph-name="geren" d="M903.142 118.042c0.666-3.84 1.894-7.45 2.458-11.315h-12.774c-93.722-104.525-229.402-170.65-380.851-170.65s-287.104 66.125-380.851 170.65h-12.749c0.563 3.866 1.792 7.475 2.458 11.315-75.29 89.139-120.858 204.211-120.858 330.010 0 282.778 229.248 512.026 512 512.026 282.778 0 512-229.248 512-512.026 0-125.798-45.542-240.87-120.832-330.010zM511.974-7.066c129.28 0 245.709 54.17 328.55 140.723-37.53 147.61-169.242 257.51-328.55 257.51-159.283 0-290.995-109.901-328.55-257.51 82.842-86.554 199.27-140.723 328.55-140.723zM682.65 618.726c0 94.234-76.416 170.65-170.675 170.65s-170.675-76.416-170.675-170.65c0-94.285 76.416-170.675 170.675-170.675s170.675 76.39 170.675 170.675zM511.974 903.168c-251.341 0-455.091-203.75-455.091-455.117 0-97.28 30.746-187.187 82.739-261.171 41.779 113.715 132.915 203.469 248.55 241.306-62.336 40.602-103.731 110.592-103.731 190.541 0 125.67 101.862 227.558 227.533 227.558 125.696 0 227.558-101.888 227.558-227.558 0-79.949-41.395-149.939-103.731-190.541 115.635-37.837 206.771-127.59 248.55-241.306 51.968 73.984 82.739 163.891 82.739 261.171 0 251.366-203.75 455.117-455.117 455.117z" />
<glyph unicode="&#xe90c;" glyph-name="gouwuche2" d="M997.069 426.778c0-61.338-48.205-111.027-107.648-111.027h-430.643c-59.469 0-107.674 49.69-107.674 111.027l-26.906 305.382c0 61.338 48.205 111.078 107.674 111.078l484.454-111.078c59.443 0 107.648-49.69 107.648-111.053l-26.906-194.33zM862.31 210.893h-646.758v52.685l-53.888 579.763h-161.664l-0.026 52.71h215.578l53.888-632.474h592.87v-52.685zM350.72 158.797c44.416 0 80.435-35.558 80.435-79.36 0-43.853-36.019-79.386-80.435-79.386-44.442 0-80.435 35.533-80.435 79.386 0 43.802 35.994 79.36 80.435 79.36zM781.517 158.797c45.158 0 81.766-35.558 81.766-79.36 0-43.853-36.608-79.386-81.766-79.386-45.133 0-81.766 35.533-81.766 79.386 0 43.802 36.634 79.36 81.766 79.36z" />
<glyph unicode="&#xe90e;" glyph-name="Home" horiz-adv-x="1023" d="M990.464 516.915l-388.045 404.173c-24.115 25.114-56.346 38.912-90.906 38.912-34.534 0-66.765-13.798-90.88-38.912l-388.045-404.173c-40.038-41.728-34.893-77.773-28.262-92.826 4.71-10.701 1.792-27.29 47.667-27.29h102.4v-307.2c0-70.605 23.987-153.574 95.974-153.574l160.026-0.026v307.2c0 35.277 15.181 102.4 51.2 102.4h102.4c36.019 0 51.2-67.123 51.2-102.4v-307.2l157.466 0.026c72.013 0 98.534 82.97 98.534 153.574v307.2h102.4c45.875 0 40.422 16.589 45.158 27.29 6.605 15.053 11.776 51.098-28.288 92.826zM952.218 448h-132.224v-358.4c0-35.277-15.206-102.4-51.2-102.4h-102.4v256c0 70.579-30.362 153.6-102.4 153.6h-102.4c-72.013 0-102.4-83.021-102.4-153.6v-256h-102.4c-35.994 0-51.2 67.123-51.2 102.4v358.4h-134.758c-1.101 0-2.15 4.429-3.072 4.48 2.202 3.866 6.016 13.696 12.365 20.275l388.070 403.917c11.597 12.083 27.955 19.507 43.827 19.328 15.872 0.179 31.232-7.245 42.829-19.328l388.070-403.917c6.349-6.579 10.163-16.41 12.39-20.275-0.947-0.051-1.971-4.48-3.098-4.48z" />
<glyph unicode="&#xe90f;" glyph-name="home2" d="M916.838 442.138v-493.338h-261.965v399.36h-285.773v-399.36h-261.939v493.338h-107.264l512.102 505.139 190.515-199.757v140.954h190.515v-305.408l131.072-140.928h-107.264zM607.258-51.2h-190.515v352.384h190.515v-352.384z" />
<glyph unicode="&#xe910;" glyph-name="IconCart" d="M334.49 337.434l26.957-102.426h491.878v-85.35l-554.65-0.333-190.874 725.325-107.802 0.026v85.325h170.675l22.733-86.477 830.592-41.523v-341.325l-689.51-153.242zM938.65 750.925l-722.483 36.122 97.126-368.973 625.357 138.957v193.894zM213.325 106.675c47.13 0 85.35-38.221 85.35-85.35s-38.221-85.325-85.35-85.325c-47.13 0-85.325 38.195-85.325 85.325s38.195 85.35 85.325 85.35zM725.325 106.675c47.13 0 85.35-38.221 85.35-85.35s-38.221-85.325-85.35-85.325c-47.13 0-85.325 38.195-85.325 85.325s38.195 85.35 85.325 85.35z" />
<glyph unicode="&#xe911;" glyph-name="IconCircleDot" d="M511.539-51.226c-282.522 0-511.565 223.514-511.565 499.226s229.043 499.2 511.565 499.2c282.522 0 511.565-223.488 511.565-499.2s-229.043-499.226-511.565-499.226zM511.539 863.974c-235.443 0-426.291-186.24-426.291-415.974s190.848-415.974 426.291-415.974c235.418 0 426.291 186.24 426.291 415.974s-190.874 415.974-426.291 415.974zM511.539 281.6c-94.182 0-170.522 74.496-170.522 166.4s76.339 166.4 170.522 166.4c94.182 0 170.522-74.496 170.522-166.4s-76.339-166.4-170.522-166.4z" />
<glyph unicode="&#xe912;" glyph-name="IconCircle" d="M511.539-51.226c-282.522 0-511.565 223.514-511.565 499.226s229.043 499.2 511.565 499.2c282.522 0 511.565-223.488 511.565-499.2s-229.043-499.226-511.565-499.226zM511.539 863.974c-235.418 0-426.291-186.24-426.291-415.974s190.874-415.974 426.291-415.974c235.418 0 426.291 186.24 426.291 415.974s-190.874 415.974-426.291 415.974z" />
<glyph unicode="&#xe913;" glyph-name="id" d="M0 115.2v665.6h1024v-665.6h-1024zM938.65 697.6h-853.325v-499.2h853.325v499.2zM512 281.6h-2.995c-3.354 9.037-10.419 20.429-25.933 28.006-16.742 8.218-61.466 30.003-96.23 46.976l-10.982 32.128c15.437 9.574 26.752 25.318 29.133 44.339l6.682 53.888c5.504 44.39-25.677 85.862-70.528 85.862s-75.981-41.472-70.374-85.862l6.81-53.888c2.406-19.021 13.722-34.765 29.184-44.339l-10.982-32.154c-34.918-17.050-79.77-38.938-95.693-46.643-14.95-7.245-22.221-19.021-25.856-28.314h-3.558v332.8h341.325v-332.8zM640 614.4h170.65c23.578 0 42.675-18.611 42.675-41.6 0-22.963-19.098-41.6-42.675-41.6h-170.65c-23.578 0-42.675 18.637-42.675 41.6 0 22.989 19.098 41.6 42.675 41.6zM640 448h170.65c23.578 0 42.675-18.611 42.675-41.6 0-22.963-19.098-41.6-42.675-41.6h-170.65c-23.578 0-42.675 18.637-42.675 41.6 0 22.989 19.098 41.6 42.675 41.6z" />
<glyph unicode="&#xe914;" glyph-name="image" d="M139.58 216.446v57.586c0 82.274 66.69 148.945 148.945 148.945h438.123c82.255 0 148.945-66.672 148.945-148.945v-57.586h-736.014zM517.772 485.236c-129.825 0-235.055 106.273-235.055 237.382s105.23 237.382 235.055 237.382c129.825 0 235.055-106.273 235.055-237.382s-105.23-237.382-235.055-237.382z" />
<glyph unicode="&#xe915;" glyph-name="jia" d="M-0.026-63.898v1023.974h1024v-1023.974h-1024zM866.432 487.475h-315.059v315.034h-78.771v-315.034h-315.085v-78.771h315.085v-315.085h78.771v315.085h315.059v78.771z" />
<glyph unicode="&#xe917;" glyph-name="jian" d="M-0.026-63.898v1023.974h1024v-1023.974h-1024zM866.432 487.475h-708.915v-78.771h708.915v78.771z" />
<glyph unicode="&#xe918;" glyph-name="kefu2" horiz-adv-x="870" d="M576.563 333.389c-6.298 2.048-46.182 20.096-21.274 96.077h-0.333c64.922 67.072 114.56 175.104 114.56 281.395 0 163.482-108.365 249.139-234.291 249.139-125.978 0-233.728-85.658-233.728-249.139 0-106.726 49.357-215.168 114.688-282.086 25.446-67.021-20.070-91.904-29.619-95.386-131.866-47.846-286.566-135.066-286.566-221.158v-32.256c0-117.299 226.688-143.974 436.48-143.974 210.099 0 433.92 26.675 433.92 143.974v32.256c0 88.678-155.469 175.206-293.837 221.158v0 0z" />
<glyph unicode="&#xe919;" glyph-name="key" horiz-adv-x="1023" d="M1022.899 106.65l-0.333-170.24-171.187-0.358 0.333 0.333-42.573 42.65-0.256 127.053-84.48 0.179-0.179 86.016-128.179 0.256-114.637 114.842c-125.67-57.088-278.682-34.227-382.003 69.299-133.222 133.453-133.222 349.824 0 483.302 133.197 133.453 349.184 133.453 482.406 0 102.938-103.142 125.978-255.718 69.786-381.363l371.302-371.968zM315.776 766.49c-33.28 33.613-87.296 33.613-120.602 0-33.28-33.638-33.28-88.141 0-121.779 33.306-33.613 87.322-33.613 120.602 0 33.306 33.638 33.306 88.141 0 121.779z" />
<glyph unicode="&#xe91a;" glyph-name="ling" d="M512-64c-282.778 0-512 229.222-512 512s229.222 512 512 512c282.778 0 512-229.222 512-512s-229.222-512-512-512zM512 903.194c-251.392 0-455.194-203.802-455.194-455.194s203.802-455.194 455.194-455.194c251.392 0 455.194 203.802 455.194 455.194s-203.802 455.194-455.194 455.194zM625.587 217.677v-54.477h-227.2v56.576c-5.146 0.23-10.394 0.256-15.462 0.666h-155.366v56.883h56.883c-2.586 51.661-5.094 271.027 0 341.35 7.834 108.032 185.267 110.976 227.558 170.65 43.11-56.883 227.558-60.646 227.558-170.65 0-64.998-0.077-277.734 0-341.35h56.883v-56.883h-131.354c-12.493-1.638-25.856-2.458-39.501-2.765z" />
<glyph unicode="&#xe91c;" glyph-name="packager" d="M955.725 670.31v-511.309c0-70.605-55.731-133.402-128-133.402h-631.45c-72.269 0-128 62.797-128 133.402v511.309c-36.147 0-68.275 23.066-68.275 58.368v63.898c0 35.302 32.128 77.824 68.275 77.824h887.45c36.122 0 68.275-42.522 68.275-77.824v-63.898c0-35.302-32.154-58.368-68.275-58.368zM796.442 114.534c36.122 0 68.275 31.386 68.275 66.688v155.622h-295.834v-222.31h227.558zM568.883 403.533h295.834v244.557h-295.834v-244.557zM159.283 181.222c0-35.302 32.128-66.688 68.275-66.688h250.291v222.31h-318.566v-155.622zM159.283 403.533h318.566v244.557h-318.566v-244.557zM910.208 803.712h-796.442c-18.048 0-48.358-25.421-48.358-43.085 0-17.638 30.31-23.603 48.358-23.603h796.442c18.074 0 48.358 5.965 48.358 23.603 0 17.664-30.285 43.085-48.358 43.085z" />
<glyph unicode="&#xe91d;" glyph-name="pei" d="M901.222-64h-782.208c-65.459 0-119.014 53.76-119.014 119.475v785.075c0 65.69 53.555 119.45 119.014 119.45h782.208c65.459 0 122.778-67.866 122.778-133.555v-756.89c0-65.69-57.318-133.555-122.778-133.555zM935.219 746.675c0 70.4-63.693 124.288-133.837 124.288h-556.518c-70.118 0-155.827-63.181-155.827-133.581v-578.765c0-70.4 41.165-133.581 111.309-133.581h601.037c70.144 0 133.837 53.914 133.837 124.314v597.325zM718.797 377.626h-76.518v-141.594c1.562-9.6 7.168-15.206 16.717-16.794h131.533v-67.2h-157.824c-46.259-1.587-68.557 21.606-66.944 69.606v225.587h131.507c9.574 0 14.362 4.813 14.362 14.413v170.394h-141.082v67.2h222.362v-259.2c1.587-41.626-23.117-62.413-74.112-62.413zM467.712 581.632h76.518v-362.394c1.562-44.774-20.736-66.381-66.944-64.794h-229.581v427.187h78.925v50.406h-81.306v67.2h301.286v-67.2h-78.899v-50.406zM486.835 512.026h-19.123v-86.4c1.562-6.4 7.962-8.806 19.123-7.194v93.594zM307.507 219.238h160.205c11.136 1.587 17.51 7.194 19.123 16.794v16.794h-179.328v-33.587zM326.63 509.645h-19.123v-88.806h14.336c1.562 0 3.174 3.2 4.787 9.6v79.206zM410.317 632.038h-23.91v-50.406h23.91v50.406zM407.936 411.238v98.406h-21.53v-108.006c-3.2-33.613-21.53-52.019-54.989-55.194h-23.91v-26.419h179.328v21.606c-31.898 0-53.427 4.813-64.563 14.413-9.549 7.987-14.336 26.394-14.336 55.194z" />
<glyph unicode="&#xe91e;" glyph-name="post" horiz-adv-x="1000" d="M985.724 786.759l-46.551-47.909-155.154 159.637 46.551 47.909c17.14 17.626 44.041 18.523 60.104 1.973l96.971-99.764c16.064-16.525 15.193-44.22-1.921-61.846zM574.243 363.314l-155.154 159.637 341.333 351.197 155.128-159.637-341.308-351.197zM552.646 341.076l-217.205-63.845 62.051 223.456 155.154-159.612zM174.394 854.241c-53.597 0-97.048-44.988-97.048-100.481v-647.67c0-55.493 26.824-89.234 80.421-89.234h631.043c53.597 0 105.195 52.29 105.195 107.783v404.179l78.884 80.831v-511.962c0-92.488-68.456-161.687-157.767-161.687h-657.354c-89.336 0-157.767 69.199-157.767 161.687v646.696c0 92.488 68.431 188.639 157.767 188.639h499.587l-78.141-78.781h-404.819z" />
<glyph unicode="&#xe920;" glyph-name="save" d="M141.722 857.626h223.974l99.763-91.059h465.434v-91.008h-884.352l95.181 182.067zM950.835 38.4h-877.696l-73.165 595.789h1024.026l-73.165-595.789z" />
<glyph unicode="&#xe921;" glyph-name="search" d="M972.55-37.451c-18.432-18.457-48.278-18.457-66.71 0l-200.080 200.629c-18.407 18.457-18.407 48.403 0 66.885 18.432 18.457 48.278 18.457 66.71 0l200.080-200.629c18.407-18.482 18.407-48.428 0-66.885zM414.72 190.876c-208.347 0-377.257 169.41-377.257 378.331 0 208.946 168.91 378.331 377.257 378.331 208.372 0 377.282-169.385 377.282-378.331 0-208.921-168.91-378.331-377.282-378.331zM414.72 852.955c-156.272 0-282.949-127.026-282.949-283.748 0-156.697 126.676-283.723 282.949-283.723s282.974 127.026 282.974 283.723c0 156.722-126.701 283.748-282.974 283.748z" />
<glyph unicode="&#xe922;" glyph-name="delete" d="M698.8 824.766v0.633c0 34.375-27.865 62.239-62.24 62.239h-249.121c-34.375 0-62.24-27.865-62.24-62.239v-0.633h-190.657v-121.725h754.913v121.725h-190.656zM197.787 638.792v-568.193c0-34.374 27.865-62.24 62.239-62.24h503.945c34.375 0 62.24 27.866 62.24 62.24v568.193h-628.424zM385.608 136.080h-124.976l-0.001 374.993h124.976l0.001-374.993zM575.158 136.080h-124.976v374.993h124.976v-374.993zM763.374 136.080h-124.978v374.993h124.977l0.001-374.993z" />
<glyph unicode="&#xe923;" glyph-name="shou" d="M901.222-64h-782.208c-65.459 0-119.014 53.76-119.014 119.475v785.075c0 65.69 53.555 119.45 119.014 119.45h782.208c65.459 0 122.778-67.866 122.778-133.555v-756.89c0-65.69-57.318-133.555-122.778-133.555zM935.245 746.675c0 70.4-63.718 124.288-133.862 124.288h-556.518c-70.144 0-155.827-63.181-155.827-133.581v-578.765c0-70.4 41.165-133.581 111.309-133.581h601.037c70.144 0 133.862 53.914 133.862 124.314v597.325zM723.558 159.232h-451.917v156.006h514.099v-105.6c-1.613-32-22.349-48.794-62.182-50.406zM702.054 248.038h-346.726v-33.613h337.152c6.349 0 9.574 3.2 9.574 9.6v24.013zM599.219 584.038h184.141v-67.2h-184.141v-28.8h184.141v-62.413h-184.141v-26.394h184.141v-64.794h-509.338v215.987h-33.485v79.206h26.317c11.136-1.613 19.123 3.2 23.91 14.413l31.078 57.6h78.925l-7.194-24.013h114.79l4.787 21.606h90.854l-4.787-21.606h186.522v-67.2h-186.522v-26.394zM360.115 399.232h148.25v26.394h-148.25v-26.394zM360.115 488.038h148.25v28.8h-148.25v-28.8zM510.746 610.432h-141.082l-7.168-12.006v-14.387h148.25v26.394z" />
<glyph unicode="&#xe924;" glyph-name="sorry" d="M512.106-50.864c-133.914 0-259.801 51.814-354.429 145.834-94.749 94.141-146.929 219.298-146.929 352.361s52.179 258.22 146.807 352.361c94.749 94.141 220.636 145.834 354.55 145.834s259.923-51.814 354.55-145.834c195.459-194.364 195.459-510.358 0-704.601-94.628-94.020-220.636-145.956-354.55-145.956v0 0 0 0zM512.106 880.697c-116.521 0-225.988-45.003-308.331-126.86s-127.711-190.594-127.711-306.385c0-115.791 45.368-224.528 127.711-306.385 82.343-81.735 191.932-126.86 308.331-126.86 116.521 0 226.11 45.125 308.453 126.981 170.038 168.944 170.038 443.827 0 612.77-82.343 81.613-191.932 126.738-308.453 126.738v0 0 0 0zM334.041 155.785v0c-42.205 0-40.624 46.584-40.624 46.584s53.76 108.859 218.69 108.859 241.8-108.859 241.8-108.859c0-46.827-44.395-46.584-44.395-46.584s-78.208 93.29-197.648 93.29c-119.319 0.122-177.823-93.29-177.823-93.29v0 0zM366.394 607.517c-33.813 0-61.423-27.367-61.423-61.058s27.488-61.058 61.423-61.058c33.935 0 61.423 27.367 61.423 61.058 0 33.813-27.488 61.058-61.423 61.058v0 0 0 0zM680.928 607.517c-33.813 0-61.423-27.367-61.423-61.058s27.488-61.058 61.423-61.058c33.935 0 61.423 27.367 61.423 61.058 0 33.813-27.367 61.058-61.423 61.058v0 0 0 0z" />
<glyph unicode="&#xe925;" glyph-name="shouhou" d="M0-64v85.325c0 0 5.914 88.832 88.294 129.766 47.744 23.706 182.323 91.085 287.078 143.565l32.922 98.893c-46.336 29.491-80.358 77.952-87.552 136.474l-20.403 165.786c-16.819 136.602 76.544 264.192 211.098 264.192 134.528 0 228.122-127.59 211.584-264.192l-20.096-165.786c-7.091-58.547-40.883-107.213-87.219-136.73l32.819-98.586c104.32-52.173 238.49-119.296 288.666-144.486 86.81-43.546 86.81-128.896 86.81-128.896v-85.325h-1024z" />
<glyph unicode="&#xe926;" glyph-name="songhou" d="M936.602 591.462c24.448-32.819 42.803-67.866 55.014-105.114 12.237-37.248 20.762-73.702 25.6-109.363s7.066-68.966 6.758-99.891c-0.333-30.95-0.486-56.192-0.486-75.75 0-3.789-0.333-8.371-0.973-13.747-0.64-5.35-1.766-10.726-3.379-16.102-1.613-5.35-3.533-9.933-5.786-13.722s-5.299-5.683-9.165-5.683h-39.603c0 21.453-3.379 39.782-10.138 54.912-6.758 15.155-15.77 27.469-27.034 36.941s-24.448 16.41-39.578 20.838c-15.13 4.403-31.078 6.63-47.795 6.63-16.742 0-32.179-3.174-46.362-9.472-14.157-6.323-26.547-14.848-37.171-25.574s-18.995-23.194-25.088-37.402c-6.118-14.208-9.19-29.21-9.19-44.979h-17.382c-11.571 0-21.555 4.096-29.926 12.314s-12.544 17.997-12.544 29.363v456.397c0 6.938 2.406 15.002 7.245 24.141 4.813 9.165 10.778 14.054 17.843 14.694 21.248 1.869 43.469 1.101 66.637-2.381s46.029-9.318 68.557-17.51c22.528-8.218 43.776-18.944 63.718-32.205 19.968-13.261 36.71-29.030 50.227-47.334v0zM921.139 387.866c7.731 0 14.49 0.154 20.275 0.486 5.786 0.307 8.704 4.25 8.704 11.827 0 1.254-0.179 2.202-0.486 2.842-0.333 0.64-0.486 1.587-0.486 2.842-7.091 30.925-14.822 60.749-23.168 89.472-8.371 28.723-22.528 53.197-42.496 73.395-12.877 11.981-26.726 20.659-41.523 26.035s-28.8 8.832-41.984 10.419c-13.21 1.587-24.32 2.048-33.331 1.408-9.011-0.614-13.824-0.947-14.49-0.947-8.346 0-15.437-2.995-21.222-8.986-5.811-5.99-8.704-12.467-8.704-19.405v-86.17c0-25.267 0.333-53.35 0.973-84.275v-0.947c0-3.149 2.253-6.938 6.758-11.366s9.011-6.63 13.517-6.63h177.664zM600.576 806.4l1.92-616.422c0-10.752-3.686-19.584-11.085-26.522-7.424-6.938-16.256-10.419-26.573-10.419h-263.578c0 37.248-9.677 66.611-28.979 88.064s-49.562 32.205-90.752 32.205c-39.27 0-69.376-9.958-90.291-29.85-20.915-19.866-31.386-50.022-31.386-90.419h-22.195c-10.957 0-19.968 3.174-27.034 9.472-7.091 6.323-10.624 15.462-10.624 27.469v492.39c0 15.13 2.893 29.978 8.678 44.493 5.811 14.515 14.003 27.776 24.627 39.782 10.624 11.981 23.014 21.606 37.171 28.877 14.157 7.245 29.619 10.88 46.362 10.88h483.738zM844.851 211.738c16.742 0 31.232-5.99 43.469-17.971 12.211-12.006 18.33-26.214 18.33-42.624 0-17.050-6.118-31.565-18.33-43.546-12.237-12.006-26.726-17.997-43.469-17.997-17.382 0-32.026 5.99-43.93 17.997-11.904 11.981-17.869 26.496-17.869 43.546 0 16.41 5.965 30.618 17.869 42.624 11.904 11.981 26.547 17.971 43.93 17.971v0zM180.557 212.685c17.382 0 32.026-5.99 43.93-17.971 11.904-12.006 17.869-26.522 17.869-43.571 0-16.41-5.965-30.618-17.869-42.598-11.904-12.006-26.547-17.997-43.93-17.997s-32.026 5.99-43.93 17.997c-11.904 11.981-17.869 26.189-17.869 42.598 0 17.050 5.965 31.565 17.869 43.571 11.904 11.981 26.547 17.971 43.93 17.971v0z" />
<glyph unicode="&#xe927;" glyph-name="Truck" d="M878.72 211.482c-12.57-47.923-56.218-83.482-108.621-83.482s-96.051 35.558-108.595 83.482h-355.814c-12.57-47.923-56.218-83.482-108.621-83.482s-96.051 35.558-108.595 83.482h-88.499v250.445l170.675 205.030h170.675v101.043h682.675v-556.518h-145.28zM197.069 183.654c31.053 0 56.294 24.96 56.294 55.654s-25.242 55.654-56.294 55.654c-31.027 0-56.294-24.96-56.294-55.654s25.267-55.654 56.294-55.654zM341.325 599.578h-153.6l-119.475-151.578v-185.267l20.224 4.403c12.544 47.923 56.243 81.587 108.595 83.482 67.046 2.406 97.587-39.962 110.131-71.040h34.125v320zM770.099 183.654c31.053 0 56.294 24.96 56.294 55.654s-25.242 55.654-56.294 55.654c-31.027 0-56.294-24.96-56.294-55.654s25.267-55.654 56.294-55.654zM955.725 700.646h-546.125v-421.069h256c7.68 33.485 52.096 71.040 104.499 71.040s92.621-35.149 100.301-71.040h85.325v421.069zM221.875 549.043h68.25v-117.888l-149.325 2.944 81.075 114.944z" />
<glyph unicode="&#xe929;" glyph-name="wen" d="M901.222-64h-782.208c-65.459 0-119.014 53.76-119.014 119.475v785.075c0 65.69 53.555 119.45 119.014 119.45h782.208c65.459 0 122.778-67.866 122.778-133.555v-756.89c0-65.69-57.318-133.555-122.778-133.555zM935.219 746.675c0 70.4-63.693 124.288-133.837 124.288h-556.518c-70.144 0-155.827-63.181-155.827-133.581v-578.765c0-70.4 41.165-133.581 111.309-133.581h601.037c70.144 0 133.837 53.914 133.837 124.314v597.325zM649.446 156.826c-7.987 1.613-15.181 6.426-21.53 14.413l-112.384 119.987-88.474-93.594c-17.562-19.2-31.078-31.974-40.653-38.4-9.549-4.787-22.349-7.194-38.246-7.194h-98.048v74.394h64.563c11.136-1.613 20.71 3.2 28.698 14.413l110.003 115.2-169.779 189.594h121.933l114.79-117.606 126.746 141.594h114.765l-176.947-206.387 114.765-124.8c4.787-6.4 9.574-9.6 14.362-9.6 4.787-1.613 14.336-2.406 28.698-2.406h50.202v-71.987h-107.597c-19.123 0-31.078 0.819-35.866 2.381zM245.325 663.245h220.006v43.187h105.216v-43.187h215.194v-79.206h-540.416v79.206z" />
<glyph unicode="&#xe92a;" glyph-name="yijian" horiz-adv-x="1000" d="M985.724 786.759l-46.551-47.909-155.154 159.637 46.551 47.909c17.14 17.626 44.041 18.523 60.104 1.973l96.971-99.764c16.064-16.525 15.193-44.22-1.921-61.846zM574.243 363.314l-155.154 159.637 341.308 351.197 155.154-159.637-341.308-351.197zM552.646 341.076l-217.205-63.845 62.077 223.456 155.128-159.612zM174.394 854.241c-53.597 0-97.048-44.988-97.048-100.481v-647.67c0-55.493 26.824-89.234 80.421-89.234h631.043c53.597 0 105.195 52.29 105.195 107.783v404.179l78.884 80.831v-511.962c0-92.488-68.456-161.687-157.767-161.687h-657.354c-89.336 0-157.767 69.199-157.767 161.687v646.696c0 92.488 68.431 188.639 157.767 188.639h499.587l-78.141-78.781h-404.819z" />
<glyph unicode="&#xe92b;" glyph-name="zhifu" d="M928 64h-832c-52.813 0-96 43.187-96 96v576c0 52.813 43.187 96 96 96h832c52.813 0 96-43.187 96-96v-576c0-52.813-43.187-96-96-96zM960 736c0 17.357-14.618 32-32 32h-832c-17.382 0-32-14.643-32-32v-96h896v96zM960 448h-896v-288c0-17.331 14.618-32 32-32h832c17.382 0 32 14.669 32 32v288zM384 320h64v-128h-64v128zM256 320h64v-128h-64v128zM128 320h64v-128h-64v128z" />
<glyph unicode="&#xe92c;" glyph-name="zhinan" d="M0 550.451h133.99l136.243-94.899h594.074l159.693-108.928h-725.837l-298.163 203.827zM0 742.4h726.963l294.81-201.651h-724.736l-297.037 201.651zM270.234 262.528h594.074l159.693-108.928h-725.837l-298.163 203.827h133.99l136.243-94.899z" />
<glyph unicode="&#xe92d;" glyph-name="zhu" d="M901.222-64h-782.208c-65.459 0-119.014 53.76-119.014 119.475v785.075c0 65.69 53.555 119.45 119.014 119.45h782.208c65.459 0 122.778-67.866 122.778-133.555v-756.89c0-65.69-57.318-133.555-122.778-133.555zM935.219 746.675c0 70.4-63.693 124.288-133.837 124.288h-556.518c-70.144 0-155.827-63.181-155.827-133.581v-578.765c0-70.4 41.165-133.581 111.309-133.581h601.037c70.144 0 133.837 53.914 133.837 124.314v597.325zM455.757 168.832c-7.987 6.426-12.774 22.426-14.336 48l-7.194 227.994h-7.168v-290.381h-81.306v290.381h-7.168l-4.787-225.587c0-44.774-14.336-64.794-43.034-60.006h-45.44v62.413h4.787c6.349 0 10.342 5.581 11.955 16.794l4.787 247.194h81.306v19.2h-100.429v64.794h102.81v36.019h-102.81v69.581h179.328c9.574 0 14.362 4.813 14.362 14.413v7.194h71.731v-48c3.174-32.026-14.362-46.413-52.608-43.187h-31.078v-36.019h93.235v-64.794h-93.235v-21.606h71.731l7.168-249.6c0-12.8 6.349-18.406 19.123-16.794h4.787v467.994h253.466v-465.587h9.574v-62.413h-289.331c-25.523 0-42.266 4.019-50.227 12.006zM615.962 219.238h88.474v88.806h-88.474v-88.806zM615.962 377.626h88.474v88.806h-88.474v-88.806zM615.962 531.226h88.474v84.019h-88.474v-84.019z" />
<glyph unicode="&#xe92e;" glyph-name="ziyuan2" d="M-0.026-64v1024h1024.026v-810.675l-213.325-213.325h-810.701zM938.65 874.675h-853.325v-853.325h682.65v170.65h170.675v682.675zM725.325 448h-426.675c-23.552 0-42.65 19.098-42.65 42.675 0 23.552 19.098 42.675 42.65 42.675h426.675c23.552 0 42.65-19.123 42.65-42.675 0-23.578-19.098-42.675-42.65-42.675zM725.325 618.675h-426.675c-23.552 0-42.65 19.098-42.65 42.675 0 23.552 19.098 42.65 42.65 42.65h426.675c23.552 0 42.65-19.098 42.65-42.65 0-23.578-19.098-42.675-42.65-42.675z" />
</font>
</defs>
</svg>
